<?xml version="1.0" encoding="UTF-8" standalone="no"?>
<svg width="84px" height="86px" viewBox="0 0 84 86" version="1.1" xmlns="http://www.w3.org/2000/svg" xmlns:xlink="http://www.w3.org/1999/xlink" xmlns:sketch="http://www.bohemiancoding.com/sketch/ns">
    <!-- Generator: Sketch 3.4 (15588) - http://www.bohemiancoding.com/sketch -->
    <title>DS icon</title>
    <desc>Created with Sketch.</desc>
    <defs></defs>
    <g id="Page-1" stroke="none" stroke-width="1" fill="none" fill-rule="evenodd" sketch:type="MSPage">
        <g id="Desktop-HD-Copy" sketch:type="MSArtboardGroup" transform="translate(-678.000000, -808.000000)" stroke="#FC9A00" stroke-width="2">
            <g id="DS-icon" sketch:type="MSLayerGroup" transform="translate(679.000000, 809.000000)">
                <path d="M23.9861086,8.07414671 C23.9861086,3.61519981 27.5660378,0 31.981482,0 C36.396929,0 39.9768581,3.61519981 39.9768581,8.07414671 C39.9768581,12.5330936 36.396929,16.1482934 31.981482,16.1482934 C27.5660378,16.1482934 23.9861086,12.5330936 23.9861086,8.07414671 L23.9861086,8.07414671 L23.9861086,8.07414671 L23.9861086,8.07414671 Z" id="Stroke-43" sketch:type="MSShapeGroup"></path>
                <path d="M65.9619401,24.2224797 C65.9619401,19.7635328 69.5418692,16.148333 73.9573134,16.148333 C78.3727604,16.148333 81.9526895,19.7635328 81.9526895,24.2224797 C81.9526895,28.6814266 78.3727604,32.2966264 73.9573134,32.2966264 C69.5418692,32.2966264 65.9619401,28.6814266 65.9619401,24.2224797 L65.9619401,24.2224797 L65.9619401,24.2224797 L65.9619401,24.2224797 Z" id="Stroke-45" sketch:type="MSShapeGroup"></path>
                <path d="M0,51.4742575 C0,47.0153106 3.57992912,43.4001108 7.99537332,43.4001108 C12.4108203,43.4001108 15.9907495,47.0153106 15.9907495,51.4742575 C15.9907495,55.9332044 12.4108203,59.5484042 7.99537332,59.5484042 C3.57992912,59.5484042 0,55.9332044 0,51.4742575 L0,51.4742575 L0,51.4742575 L0,51.4742575 Z" id="Stroke-47" sketch:type="MSShapeGroup"></path>
                <path d="M33.9792373,75.6966157 C33.9792373,71.2376688 37.5591664,67.622469 41.9746106,67.622469 C46.3900576,67.622469 49.9699868,71.2376688 49.9699868,75.6966157 C49.9699868,80.1555626 46.3900576,83.7707624 41.9746106,83.7707624 C37.5591664,83.7707624 33.9792373,80.1555626 33.9792373,75.6966157 L33.9792373,75.6966157 L33.9792373,75.6966157 L33.9792373,75.6966157 Z" id="Stroke-49" sketch:type="MSShapeGroup"></path>
                <path d="M65.9619401,59.5485653 C65.9619401,55.0896184 69.5418692,51.4744186 73.9573134,51.4744186 C78.3727604,51.4744186 81.9526895,55.0896184 81.9526895,59.5485653 C81.9526895,64.0075122 78.3727604,67.622712 73.9573134,67.622712 C69.5418692,67.622712 65.9619401,64.0075122 65.9619401,59.5485653 L65.9619401,59.5485653 L65.9619401,59.5485653 L65.9619401,59.5485653 Z" id="Stroke-51" sketch:type="MSShapeGroup"></path>
                <path d="M12.9925933,43.1453711 L28.4836298,15.8951277" id="Stroke-53" sketch:type="MSShapeGroup"></path>
                <path d="M73,51.2194359 L73,33.0526079" id="Stroke-55" sketch:type="MSShapeGroup"></path>
                <path d="M41.4761128,67.3677378 L33.4807395,17.1566324" id="Stroke-57" sketch:type="MSShapeGroup"></path>
                <path d="M67.9606506,53.7425271 L37.7281442,14.885698" id="Stroke-59" sketch:type="MSShapeGroup"></path>
                <path d="M50.2208267,72.9187848 L66.7112862,63.5830543" id="Stroke-61" sketch:type="MSShapeGroup"></path>
                <path d="M16.7403698,48.6963475 L66.7114671,28.2586643" id="Stroke-63" sketch:type="MSShapeGroup"></path>
            </g>
        </g>
    </g>
</svg>