<?xml version="1.0" encoding="UTF-8" standalone="no"?>
<svg width="88px" height="83px" viewBox="0 0 88 83" version="1.1" xmlns="http://www.w3.org/2000/svg" xmlns:xlink="http://www.w3.org/1999/xlink" xmlns:sketch="http://www.bohemiancoding.com/sketch/ns">
    <!-- Generator: Sketch 3.4 (15588) - http://www.bohemiancoding.com/sketch -->
    <title>Design icon</title>
    <desc>Created with Sketch.</desc>
    <defs></defs>
    <g id="Page-1" stroke="none" stroke-width="1" fill="none" fill-rule="evenodd" sketch:type="MSPage">
        <g id="Desktop-HD-Copy" sketch:type="MSArtboardGroup" transform="translate(-1010.000000, -807.000000)" stroke="#21B2F1" stroke-width="2">
            <g id="Design-icon" sketch:type="MSLayerGroup" transform="translate(1012.000000, 809.000000)">
                <path d="M41.9998845,56.4374212 L27.41655,41.8540762 L65.0415412,4.37491162 C69.0694725,0.346995862 75.596955,0.346995862 79.6248862,4.37491162 C83.6527912,8.40282975 83.6527912,14.930328 79.6248862,18.9582461 L41.9998845,56.4374212 L41.9998845,56.4374212 L41.9998845,56.4374212 Z" id="Stroke-79" sketch:type="MSShapeGroup"></path>
                <path d="M26.4378922,57.8776826 C22.0103914,53.4501846 14.867475,53.4181014 10.483725,57.801849 C7.68372412,60.6018499 7.307475,64.0785154 7.33955775,66.9864326 C7.3716405,69.8593507 5.31830775,72.4843507 0.298725,72.5689335 C7.3483095,79.615599 19.6245577,80.7210154 26.5137259,73.8318499 C31.15707,69.1885162 30.47163,61.9114335 26.4378922,57.8776826 L26.4378922,57.8776826 L26.4378922,57.8776826 L26.4378922,57.8776826 Z" id="Stroke-81" sketch:type="MSShapeGroup"></path>
                <path d="M34.4167241,8.7499125 L25.666725,17.4999116" id="Stroke-83" sketch:type="MSShapeGroup"></path>
                <path d="M75.2499116,49.5833625 L66.4999125,58.3333616" id="Stroke-85" sketch:type="MSShapeGroup"></path>
                <path d="M52.2393375,67.4058053 C53.3494209,68.5158863 54.7853833,69.9518479 56.2602311,71.4266963 C59.8092626,74.9757225 63.583422,78.749895 63.583422,78.749895 L84.0000788,58.333212 C84.0000788,58.333212 71.5918245,45.0557764 71.02578,44.466975" id="Stroke-87" sketch:type="MSShapeGroup"></path>
                <path d="M39.7207388,14.0178911 L25.6666646,0 L5.25,20.4166672 C5.25,20.4166672 9.78462975,24.9512996 16.2659753,31.4326425" id="Stroke-89" sketch:type="MSShapeGroup"></path>
            </g>
        </g>
    </g>
</svg>