<?xml version="1.0" encoding="UTF-8" standalone="no"?>
<svg width="85px" height="84px" viewBox="0 0 85 84" version="1.1" xmlns="http://www.w3.org/2000/svg" xmlns:xlink="http://www.w3.org/1999/xlink" xmlns:sketch="http://www.bohemiancoding.com/sketch/ns">
    <!-- Generator: Sketch 3.4 (15588) - http://www.bohemiancoding.com/sketch -->
    <title>ico-track-develop copy 2</title>
    <desc>Created with Sketch.</desc>
    <defs></defs>
    <g id="Page-1" stroke="none" stroke-width="1" fill="none" fill-rule="evenodd" sketch:type="MSPage">
        <g id="Desktop-HD-Copy" sketch:type="MSArtboardGroup" transform="translate(-354.000000, -805.000000)" stroke="#05C14F" stroke-width="2">
            <g id="ico-track-develop-copy-2" sketch:type="MSLayerGroup" transform="translate(355.000000, 806.000000)">
                <path d="M34.1373406,81.2770805 L3.10331824,81.2770805 L3.10331824,58.0550788 L34.1373406,58.0550788 L34.1373406,81.2770805 L34.1373406,81.2770805 L34.1373406,81.2770805 Z" id="Stroke-91" sketch:type="MSShapeGroup"></path>
                <path d="M32.2699911,13.7219962 L62.261908,13.7219962 L62.261908,22.5807804" id="Stroke-93" sketch:type="MSShapeGroup"></path>
                <path d="M35.7738964,70.1507466 L62.4446545,70.1507466 L62.4446545,58.686872" id="Stroke-95" sketch:type="MSShapeGroup"></path>
                <path d="M31.0340224,14.5137507 C31.0340224,22.5301773 24.0875628,29.0275123 15.5170054,29.0275123 C6.94644796,29.0275123 0,22.5301773 0,14.5137507 C0,6.49732417 6.94644796,0 15.5170054,0 C24.0875628,0 31.0340224,6.49732417 31.0340224,14.5137507 L31.0340224,14.5137507 L31.0340224,14.5137507 L31.0340224,14.5137507 Z" id="Stroke-97" sketch:type="MSShapeGroup"></path>
                <path d="M62.3501733,22.0076447 L42.4601945,40.6116335 L62.3501733,59.2156331 L82.2401636,40.6116335 L62.3501733,22.0076447 L62.3501733,22.0076447 L62.3501733,22.0076447 Z" id="Stroke-99" sketch:type="MSShapeGroup"></path>
            </g>
        </g>
    </g>
</svg>